<svg width="30" height="30" viewBox="0 0 30 30" fill="none" xmlns="http://www.w3.org/2000/svg">
<path d="M1 20.8831L1.91302 22.3652L2.82604 15.6368L3.73906 17.5826L4.44918 16.6261L5.86943 4L6.68101 4.54933L8.89577 26L9.7244 21.6L10.3331 20.8831" stroke="#0E6FF9" stroke-width="1.5" stroke-linecap="round" stroke-linejoin="round"/>
<path d="M10.332 20.8831L11.169 22.3652L12.0059 15.6368L12.8428 17.5826L13.4938 16.6261L14.7957 4L15.5396 4.54933L17.5698 26L18.3294 21.6L18.8874 20.8831" stroke="#0E6FF9" stroke-width="1.5" stroke-linecap="round" stroke-linejoin="round"/>
<path d="M18.8896 20.8831L19.8788 22.3652L20.8679 15.6368L21.857 17.5826L22.6263 16.6261L24.1649 4L25.0441 4.54933L27.4434 26L28.3411 21.6L29.0005 20.8831" stroke="#0E6FF9" stroke-width="1.5" stroke-linecap="round" stroke-linejoin="round"/>
</svg>
