<svg width="14" height="14" viewBox="0 0 14 14" fill="none" xmlns="http://www.w3.org/2000/svg">
<path fill-rule="evenodd" clip-rule="evenodd" d="M13 7C13 3.68629 10.3137 1 7 1C3.68629 1 1 3.68629 1 7C1 10.3137 3.68629 13 7 13C10.3137 13 13 10.3137 13 7ZM14 7C14 3.13401 10.866 0 7 0C3.13401 0 0 3.13401 0 7C0 10.866 3.13401 14 7 14C10.866 14 14 10.866 14 7ZM8 4C8 4.55228 7.55228 5 7 5C6.44772 5 6 4.55228 6 4C6 3.44772 6.44772 3 7 3C7.55228 3 8 3.44772 8 4ZM7.5 6.5C7.5 6.22386 7.27614 6 7 6C6.72386 6 6.5 6.22386 6.5 6.5V10.5C6.5 10.7761 6.72386 11 7 11C7.27614 11 7.5 10.7761 7.5 10.5V6.5Z" fill="#0E6FF9"/>
</svg>
