<svg width="18" height="18" viewBox="0 0 18 18" fill="none" xmlns="http://www.w3.org/2000/svg">
<path d="M3.99976 6.07129L3.8562 6.08984C3.30843 6.15749 2.91884 6.65619 2.98608 7.2041L3.83862 14.1514C3.9059 14.6993 4.40504 15.0893 4.95288 15.0225L11.9011 14.1689C12.0664 14.1486 12.2172 14.0883 12.3455 14H13.6013C13.3496 14.5556 12.8494 14.984 12.2244 15.126L12.0232 15.1621L5.07495 16.0146C4.04725 16.1405 3.10598 15.4631 2.88159 14.4746L2.84644 14.2734L1.99292 7.3252C1.85867 6.22936 2.63842 5.23168 3.73413 5.09668L3.99976 5.06348V6.07129ZM14.2039 2.01074C15.2125 2.113 15.9998 2.96435 15.9998 4V11L15.989 11.2041C15.8935 12.1456 15.1454 12.8938 14.2039 12.9893L13.9998 13H6.99976C5.96421 12.9999 5.11275 12.2127 5.0105 11.2041L4.99976 11V4C4.99976 2.89551 5.89529 2.00012 6.99976 2H13.9998L14.2039 2.01074ZM6.99976 3C6.44757 3.00012 5.99976 3.44779 5.99976 4V11C5.99976 11.5522 6.44757 11.9999 6.99976 12H13.9998C14.552 12 14.9998 11.5523 14.9998 11V4C14.9998 3.44772 14.552 3 13.9998 3H6.99976ZM10.407 4.7334C10.4405 4.64945 10.5591 4.64945 10.5925 4.7334L11.2488 6.37793C11.2631 6.41375 11.2972 6.43889 11.3357 6.44141L13.1033 6.55664C13.1932 6.56282 13.2293 6.6757 13.1599 6.7334L11.7986 7.86523C11.769 7.88981 11.7561 7.92953 11.7654 7.9668L12.2019 9.68359C12.2242 9.77115 12.1279 9.84111 12.0515 9.79297L10.5535 8.84766C10.521 8.82714 10.4796 8.82727 10.447 8.84766L8.94897 9.79297C8.87255 9.84121 8.77632 9.77119 8.79858 9.68359L9.23511 7.9668C9.24437 7.92957 9.23143 7.88978 9.2019 7.86523L7.8396 6.7334C7.7701 6.67562 7.80703 6.56253 7.89722 6.55664L9.66479 6.44141C9.70322 6.43885 9.73647 6.41371 9.75073 6.37793L10.407 4.7334Z" fill="#35383A"/>
</svg>
