<?xml version="1.0" encoding="UTF-8"?>
<svg width="200px" height="200px" version="1.1" xmlns="http://www.w3.org/2000/svg" xmlns:xlink="http://www.w3.org/1999/xlink">
    <title>ghost-img</title>
    <defs>
        <path d="M2,0 L40,0 C41.1045695,-2.02906125e-16 42,0.8954305 42,2 L42,40 C42,41.1045695 41.1045695,42 40,42 L2,42 C0.8954305,42 1.3527075e-16,41.1045695 0,40 L0,2 C-1.3527075e-16,0.8954305 0.8954305,2.02906125e-16 2,0 Z" id="path-1"></path>
        <rect id="path-3" x="9" y="9" width="42" height="42" rx="2"></rect>
        <filter x="-60.7%" y="-194.3%" width="221.4%" height="488.5%" filterUnits="objectBoundingBox" id="filter-5">
            <feGaussianBlur stdDeviation="2.12053571 0" in="SourceGraphic"></feGaussianBlur>
        </filter>
        <polygon id="path-6" points="0 0 44 0 44 42.24 0 42.24"></polygon>
        <path d="M2,0 L56,0 C57.1045695,3.49926844e-15 58,0.8954305 58,2 L58,56 C58,57.1045695 57.1045695,58 56,58 L2,58 C0.8954305,58 3.83744532e-15,57.1045695 0,56 L0,2 C-3.57315355e-16,0.8954305 0.8954305,-1.91384796e-17 2,0 Z" id="path-8"></path>
        <rect id="path-10" x="0" y="0" width="58" height="58" rx="4"></rect>
        <filter x="-43.7%" y="-139.8%" width="187.4%" height="379.6%" filterUnits="objectBoundingBox" id="filter-12">
            <feGaussianBlur stdDeviation="2.12053571 0" in="SourceGraphic"></feGaussianBlur>
        </filter>
        <rect id="path-13" x="0" y="0" width="58" height="58"></rect>
        <rect id="path-15" x="0" y="0" width="44" height="44"></rect>
        <polygon id="path-17" points="0 0 60 0 60 57.6 0 57.6"></polygon>
        <linearGradient x1="20.65568%" y1="85.1799662%" x2="79.34432%" y2="15.0947968%" id="linearGradient-19">
            <stop stop-color="#FFBB28" offset="0%"></stop>
            <stop stop-color="#8B95E4" offset="100%"></stop>
        </linearGradient>
        <linearGradient x1="100%" y1="17.7642418%" x2="0%" y2="84.9605211%" id="linearGradient-20">
            <stop stop-color="#8B95E4" offset="0%"></stop>
            <stop stop-color="#85C836" offset="100%"></stop>
        </linearGradient>
        <linearGradient x1="0%" y1="50%" x2="100%" y2="50%" id="linearGradient-21">
            <stop stop-color="#85C836" offset="0%"></stop>
            <stop stop-color="#FFBB28" offset="100%"></stop>
        </linearGradient>
        <linearGradient x1="0%" y1="50%" x2="100%" y2="50%" id="linearGradient-22">
            <stop stop-color="#8B95E4" offset="0%"></stop>
            <stop stop-color="#FC7D2C" offset="100%"></stop>
        </linearGradient>
        <linearGradient x1="100%" y1="50%" x2="0%" y2="50%" id="linearGradient-23">
            <stop stop-color="#3B92ED" offset="0%"></stop>
            <stop stop-color="#FFBB28" offset="100%"></stop>
        </linearGradient>
        <linearGradient x1="85.7959594%" y1="57.2502061%" x2="14.2040406%" y2="39.8513571%" id="linearGradient-24">
            <stop stop-color="#3B92ED" offset="0%"></stop>
            <stop stop-color="#8B95E4" offset="100%"></stop>
        </linearGradient>
        <linearGradient x1="13.2653061%" y1="22.2527394%" x2="86.7346939%" y2="74.7265393%" id="linearGradient-25">
            <stop stop-color="#3B92ED" offset="0%"></stop>
            <stop stop-color="#8B95E4" offset="100%"></stop>
        </linearGradient>
        <linearGradient x1="20.65568%" y1="85.1799662%" x2="79.34432%" y2="15.0947968%" id="linearGradient-26">
            <stop stop-color="#FFBB28" offset="0%"></stop>
            <stop stop-color="#8B95E4" offset="100%"></stop>
        </linearGradient>
        <linearGradient x1="100%" y1="17.7642418%" x2="0%" y2="84.9605211%" id="linearGradient-27">
            <stop stop-color="#8B95E4" offset="0%"></stop>
            <stop stop-color="#85C836" offset="100%"></stop>
        </linearGradient>
        <linearGradient x1="0%" y1="50%" x2="100%" y2="50%" id="linearGradient-28">
            <stop stop-color="#85C836" offset="0%"></stop>
            <stop stop-color="#FFBB28" offset="100%"></stop>
        </linearGradient>
        <linearGradient x1="0%" y1="50%" x2="100%" y2="50%" id="linearGradient-29">
            <stop stop-color="#8B95E4" offset="0%"></stop>
            <stop stop-color="#FC7D2C" offset="100%"></stop>
        </linearGradient>
        <linearGradient x1="100%" y1="50%" x2="0%" y2="50%" id="linearGradient-30">
            <stop stop-color="#3B92ED" offset="0%"></stop>
            <stop stop-color="#FFBB28" offset="100%"></stop>
        </linearGradient>
        <linearGradient x1="85.7959594%" y1="57.2502061%" x2="14.2040406%" y2="39.8513571%" id="linearGradient-31">
            <stop stop-color="#3B92ED" offset="0%"></stop>
            <stop stop-color="#8B95E4" offset="100%"></stop>
        </linearGradient>
        <linearGradient x1="13.2653061%" y1="22.2527394%" x2="86.7346939%" y2="74.7265393%" id="linearGradient-32">
            <stop stop-color="#3B92ED" offset="0%"></stop>
            <stop stop-color="#8B95E4" offset="100%"></stop>
        </linearGradient>
        <rect id="path-33" x="0" y="0" width="42" height="42" rx="2"></rect>
        <rect id="path-35" x="0.826086957" y="0.826086957" width="58" height="58" rx="4"></rect>
        <polygon id="path-37" points="0 0 31 0 31 31 1 53"></polygon>
        <polygon id="path-39" points="0 0 31 0 31 55 0 31"></polygon>
        <polygon id="path-41" points="0 0 31 0 31 55 0 31"></polygon>
        <polygon id="path-43" points="0 0 31 0 31 31 1 53"></polygon>
        <polygon id="path-45" points="0 0 31 0 31 55 0 31"></polygon>
        <polygon id="path-47" points="0 0 31 0 31 31 1 53"></polygon>
        <polygon id="path-49" points="0 0 23.25 0 23.25 23.25 0.75 39.75"></polygon>
        <polygon id="path-51" points="0 0 23.25 0 23.25 41.25 0 23.25"></polygon>
        <polygon id="path-53" points="0 0 23.25 0 23.25 41.25 0 23.25"></polygon>
        <polygon id="path-55" points="0 0 23.25 0 23.25 23.25 0.75 39.75"></polygon>
        <polygon id="path-57" points="0 0 23.25 0 23.25 41.25 0 23.25"></polygon>
        <polygon id="path-59" points="0 0 23.25 0 23.25 23.25 0.75 39.75"></polygon>
        <path d="M0,5.70637266 C2.16143482,2.73545755 4.1036167,1.25 5.82654562,1.25 C8.410939,1.25 11.5872249,5.70637266 14.6775254,5.70637266 C17.767826,5.70637266 20.4024285,2.89363361 23.7733764,2.89363361 C27.1443243,2.89363361 27.6857646,6.13416703 31,5.70637266 C31,6.72037152 31,8.15158063 31,10 L0,10 L0,5.70637266 Z" id="path-61"></path>
        <path d="M0,8.62721508 C1.77685546,5.85267369 3.60844048,4.32934099 5.49475505,4.05721696 C8.3242269,3.64903093 11.1773835,7.34181508 14.2312907,7.34181508 C17.2851979,7.34181508 20.0441483,2.16411055 22.8851842,1.39030265 C25.7262202,0.616494754 27.7100982,3.24371921 31,4.38335857 C31,5.53155351 31,7.40376732 31,10 L0,10 L0,8.62721508 Z" id="path-62"></path>
        <path d="M0,1.25 C1.96250185,4.3191375 3.88634717,5.85370626 5.77153596,5.85370626 C8.59931913,5.85370626 10.9525421,2.5792764 14.3278821,2.42936828 C17.7032221,2.27946015 19.0604947,4.44858299 22.7863203,5.63799706 C26.5121458,6.82741112 28.4987594,3.97599155 31,1.25 C31,2.40911468 31,5.32578135 31,10 L0,10 L0,1.25 Z" id="path-63"></path>
        <path d="M0,7.74048566 C2.65035882,5.22343357 4.82790951,4.15790134 6.53265205,4.54388896 C9.08976585,5.12287039 11.809661,7.74048566 14.9625787,7.59666311 C18.1154963,7.45284055 19.6547689,1.25 22.9150078,1.25 C26.1752468,1.25 28.0584534,5.9152898 31,7.47950985 C31,7.94890537 31,8.78906875 31,10 L0,10 L0,7.74048566 Z" id="path-64"></path>
        <path d="M0,4.56509813 C1.7430926,2.18836604 3.3093683,1 4.69882711,1 C6.78301532,1 9.34453617,4.56509813 11.8367141,4.56509813 C14.3288919,4.56509813 16.4535714,2.31490689 19.1720777,2.31490689 C21.8905841,2.31490689 22.3272295,4.90733362 25,4.56509813 C25,5.37629722 25,6.52126451 25,8 L0,8 L0,4.56509813 Z" id="path-65"></path>
        <path d="M0,6.90177206 C1.43294795,4.68213895 2.91003264,3.46347279 4.43125407,3.24577357 C6.71308621,2.91922474 9.01401891,5.87345206 11.4768473,5.87345206 C13.9396758,5.87345206 16.1646357,1.73128844 18.4557937,1.11224212 C20.7469518,0.493195803 22.3468534,2.59497537 25,3.50668686 C25,4.42524281 25,5.92301386 25,8 L0,8 L0,6.90177206 Z" id="path-66"></path>
        <path d="M0,1 C1.58266278,3.45531 3.13415094,4.682965 4.65446448,4.682965 C6.93493478,4.682965 8.83269528,2.06342112 11.5547437,1.94349462 C14.276792,1.82356812 15.3713667,3.55886639 18.3760647,4.51039764 C21.3807628,5.4619289 22.9828705,3.18079324 25,1 C25,1.92729175 25,4.26062508 25,8 L0,8 L0,1 Z" id="path-67"></path>
        <path d="M0,6.19238853 C2.13738615,4.17874686 3.89347541,3.32632107 5.26826778,3.63511117 C7.33045633,4.09829631 9.52392016,6.19238853 12.0665957,6.07733049 C14.6092712,5.96227244 15.8506201,1 18.479845,1 C21.10907,1 22.627785,4.73223184 25,5.98360788 C25,6.3591243 25,7.031255 25,8 L0,8 L0,6.19238853 Z" id="path-68"></path>
        <rect id="path-69" x="0" y="0" width="55.3846154" height="55.3846154"></rect>
        <rect id="path-71" x="0" y="0" width="41.5384615" height="41.5384615"></rect>
        <rect id="path-73" x="12.3076923" y="12.3076923" width="55.3846154" height="55.3846154"></rect>
        <rect id="path-75" x="0" y="0" width="41.5384615" height="41.5384615"></rect>
    </defs>
    <g id="ghost-img" stroke="none" stroke-width="1" fill="none" fill-rule="evenodd">
        <g id="Time-Series-80x80">
            <rect id="square" x="0" y="0" width="80" height="80"></rect>
            <g id="long-bars" transform="translate(11.000000, 9.000000)">
                <rect id="blue-bar-1" fill="#3B92ED" x="0.307692308" y="26.3846154" width="7.69230769" height="15.3846154"></rect>
                <rect id="blue-line" fill="#3B92ED" x="3.38461538" y="24.8461538" width="1.53846154" height="27.6923077"></rect>
                <rect id="blue-bar-2" fill="#FFBB28" x="12.6153846" y="31" width="7.69230769" height="29.2307692"></rect>
                <rect id="blue-line" fill="#FFBB28" x="15.6923077" y="18.6923077" width="1.53846154" height="27.6923077"></rect>
                <rect id="blue-bar-3" fill="#3B92ED" x="24.9230769" y="6.38461538" width="7.69230769" height="16.9230769"></rect>
                <rect id="blue-line" fill="#3B92ED" x="28" y="0.230769231" width="1.53846154" height="32.3076923"></rect>
                <rect id="yellow-bar-2" fill="#FFBB28" x="37.2307692" y="15.6153846" width="7.69230769" height="35.3846154"></rect>
                <rect id="yellow-line" fill="#FFBB28" x="40.3076923" y="6.38461538" width="1.53846154" height="49.2307692"></rect>
                <rect id="blue-bar-4" fill="#3B92ED" x="49.5384615" y="6.38461538" width="7.69230769" height="27.6923077"></rect>
                <rect id="blue-line" fill="#3B92ED" x="52.6153846" y="3.30769231" width="1.53846154" height="40"></rect>
            </g>
        </g>
        <g id="Time-Series-60x60" transform="translate(90.000000, 0.000000)">
            <rect id="square" x="0" y="0" width="60" height="60"></rect>
            <g id="long-bars" transform="translate(8.250000, 6.750000)">
                <rect id="blue-bar-1" fill="#3B92ED" x="0.230769231" y="19.7884615" width="5.76923077" height="11.5384615"></rect>
                <rect id="blue-line" fill="#3B92ED" x="2.53846154" y="18.6346154" width="1.15384615" height="20.7692308"></rect>
                <rect id="blue-bar-2" fill="#FFBB28" x="9.46153846" y="23.25" width="5.76923077" height="21.9230769"></rect>
                <rect id="blue-line" fill="#FFBB28" x="11.7692308" y="14.0192308" width="1.15384615" height="20.7692308"></rect>
                <rect id="blue-bar-3" fill="#3B92ED" x="18.6923077" y="4.78846154" width="5.76923077" height="12.6923077"></rect>
                <rect id="blue-line" fill="#3B92ED" x="21" y="0.173076923" width="1.15384615" height="24.2307692"></rect>
                <rect id="yellow-bar-2" fill="#FFBB28" x="27.9230769" y="11.7115385" width="5.76923077" height="26.5384615"></rect>
                <rect id="yellow-line" fill="#FFBB28" x="30.2307692" y="4.78846154" width="1.15384615" height="36.9230769"></rect>
                <rect id="blue-bar-4" fill="#3B92ED" x="37.1538462" y="4.78846154" width="5.76923077" height="20.7692308"></rect>
                <rect id="blue-line" fill="#3B92ED" x="39.4615385" y="2.48076923" width="1.15384615" height="30"></rect>
            </g>
        </g>
    </g>
</svg>