<?xml version="1.0" encoding="UTF-8"?>
<svg width="27px" height="23px" viewBox="0 0 27 23" version="1.1" xmlns="http://www.w3.org/2000/svg" xmlns:xlink="http://www.w3.org/1999/xlink">
    <!-- Generator: Sketch 48.2 (47327) - http://www.bohemiancoding.com/sketch -->
    <title>cviz_O Chart</title>
    <desc>Created with Sketch.</desc>
    <defs></defs>
    <g id="General-icons" stroke="none" stroke-width="1" fill="none" fill-rule="evenodd">
        <g id="cviz_O-Chart" transform="translate(-2.000000, -4.000000)">
            <rect id="Rectangle-146" x="0" y="0" width="30" height="30"></rect>
            <polygon id="Line" fill="#DBDADA" fill-rule="nonzero" points="26 12 26 11 25 11 25 12 25 14 25 15 26 15 26 14"></polygon>
            <polygon id="Line" fill="#DBDADA" fill-rule="nonzero" points="7.05555556 11 6 11 6 12 7.05555556 12 23.9444444 12 25 12 25 11 23.9444444 11"></polygon>
            <polygon id="Line" fill="#DBDADA" fill-rule="nonzero" points="5 23 5 23 6 23 6 23 6 11 6 11 5 11 5 11"></polygon>
            <polygon id="Line" fill="#DBDADA" fill-rule="nonzero" points="15 17 15 18 16 18 16 17 16 10 16 9 15 9 15 10"></polygon>
            <g id="Group" transform="translate(1.333333, 3.023810)">
                <rect id="Rectangle-205" fill="#1C91DC" x="10.6666667" y="0.976190476" width="7" height="5"></rect>
                <polygon id="Rectangle-205-Copy" fill="#85C836" points="10.6666667 10.9790473 17.6666667 10.9761905 17.6666667 15.9761905 10.6666667 15.9761905"></polygon>
                <rect id="Rectangle-205-Copy-2" fill="#85C836" x="0.666666667" y="10.9761905" width="7" height="5"></rect>
                <rect id="Rectangle-205-Copy-4" fill="#FF915D" x="0.666666667" y="18.9761905" width="7" height="5"></rect>
                <polygon id="Rectangle-205-Copy-3" fill="#85C836" points="20.6666667 10.9761905 27.6666667 10.9761905 27.6666667 15.9761905 20.6666667 15.9761905"></polygon>
            </g>
        </g>
    </g>
</svg>