<svg width="22" height="22" viewBox="0 0 22 22" fill="none" xmlns="http://www.w3.org/2000/svg">
<mask id="mask0_32607_23430" style="mask-type:luminance" maskUnits="userSpaceOnUse" x="2" y="2" width="18" height="19">
<path d="M2 2H20V20.0003H2V2Z" fill="white"/>
</mask>
<g mask="url(#mask0_32607_23430)">
<path opacity="0.6" d="M6 16.0001C4.29371 16.0001 2 17.0001 2 17.0001V20.0001H20V15.5001C20 15.5001 18.4309 16.0732 17.5 16.0001C15.6084 15.8515 15.8745 13.2931 14 13.0001C11.5103 12.6108 11.5112 17.2886 9 17.5C7.65114 17.6136 7.5 16.0001 6 16.0001Z" fill="url(#paint0_linear_32607_23430)" fill-opacity="0.4"/>
<path d="M2 17C2 17 4 16 6 16C7.35494 16 7.65114 17.623 9 17.5C11.5112 17.2711 11.5103 12.5787 14 13C15.8745 13.3173 15.6084 15.8392 17.5 16C18.4309 16.0792 20 15.5 20 15.5" stroke="#FA660F" stroke-linecap="round"/>
<rect x="2" y="4" width="7" height="7" rx="1" fill="#0E6FF9" fill-opacity="0.6"/>
<ellipse cx="3.94428" cy="5.9444" rx="0.777778" ry="0.777778" fill="#BDD8FD"/>
<path d="M6.81036 7.25678C7.06002 7.05705 7.41733 7.06619 7.65631 7.27857L9 8.47315V9.99988C9 10.5522 8.55228 10.9999 8 10.9999H3C2.44772 10.9999 2 10.5522 2 9.99988V9.34857L3.2608 8.24585C3.45076 8.07971 3.71925 8.03715 3.95123 8.13648L4.49426 8.36933C4.8651 8.52826 5.29347 8.47012 5.60852 8.21808L6.81036 7.25678Z" fill="#BDD8FD"/>
<path d="M18.4094 4C18.8435 4.00005 19.1938 4.10915 19.4599 4.32509C19.7259 4.54105 19.8596 4.8306 19.8596 5.19411C19.8596 5.45127 19.7792 5.66877 19.6206 5.84556C19.5205 5.95578 19.4157 6.0307 19.3073 6.07082C19.3887 6.07082 19.506 6.13849 19.6584 6.27304C19.886 6.47597 20 6.75334 20 7.10495C20 7.47458 19.8665 7.79996 19.6003 8.0802C19.3342 8.36014 18.9404 8.49993 18.4188 8.5C17.7759 8.5 17.3286 8.29838 17.078 7.89462C16.9465 7.67964 16.8739 7.39751 16.8593 7.04991H17.7356C17.7356 7.22472 17.7649 7.37054 17.8234 7.48507C17.9319 7.69563 18.1292 7.80106 18.4148 7.80119C18.5902 7.80119 18.7434 7.74266 18.8739 7.62713C19.0042 7.51167 19.0696 7.346 19.0697 7.12927C19.0697 6.84195 18.9486 6.64977 18.7065 6.55333C18.5687 6.49913 18.3518 6.47144 18.0556 6.47142V5.85708C18.3456 5.85304 18.5485 5.82538 18.6632 5.77517C18.8612 5.69069 18.9603 5.52013 18.9603 5.26323C18.9603 5.09653 18.909 4.96068 18.8077 4.85623C18.7065 4.75209 18.5644 4.70011 18.381 4.70009C18.1702 4.70009 18.0144 4.76355 17.9152 4.89206C17.8161 5.02062 17.7693 5.19295 17.7734 5.40785H16.9403C16.9487 5.19092 16.9876 4.98451 17.0564 4.78968C17.1295 4.61916 17.2444 4.46188 17.4008 4.31741C17.5176 4.21504 17.6561 4.13615 17.8166 4.08191C17.9774 4.02766 18.1756 4 18.4094 4Z" fill="#35383A"/>
<path d="M11.9822 8.39121H11.0681V5.37841H10V4.79352C10.2815 4.78148 10.4786 4.76254 10.5914 4.73848C10.771 4.70031 10.9175 4.62391 11.0302 4.50939C11.1073 4.43116 11.1661 4.32733 11.2058 4.1971C11.2287 4.11879 11.2409 4.05993 11.2409 4.02176H11.9822V8.39121Z" fill="#35383A"/>
<path d="M14.8474 4C15.3274 4.00009 15.7099 4.12915 15.9938 4.38524C16.2772 4.64124 16.419 4.98004 16.4191 5.40145C16.4191 5.72493 16.3184 6.01293 16.118 6.26408C15.9865 6.43078 15.7704 6.61727 15.4699 6.8221L15.1134 7.06527C14.8902 7.21785 14.7369 7.32843 14.6543 7.39676C14.572 7.46496 14.5027 7.54458 14.4464 7.63481H16.4286V8.39121H13.3189C13.3273 8.07797 13.3968 7.79148 13.5282 7.53242C13.6556 7.24115 13.9564 6.9325 14.4302 6.60708C14.8414 6.32381 15.1085 6.1217 15.2295 5.99915C15.4153 5.80832 15.5077 5.59898 15.5077 5.37201C15.5077 5.1874 15.4546 5.03375 15.3484 4.91126C15.2419 4.7887 15.089 4.72696 14.8906 4.72696C14.6196 4.727 14.4352 4.82432 14.337 5.01877C14.2807 5.13129 14.2462 5.31119 14.2358 5.55631H13.3689C13.3835 5.18461 13.4529 4.88306 13.5782 4.65401C13.8162 4.21821 14.24 4 14.8474 4Z" fill="#35383A"/>
</g>
<rect opacity="0.8" x="17" y="10" width="3" height="1" rx="0.5" fill="#EB6756"/>
<rect x="10" y="10" width="6" height="1" rx="0.5" fill="#949494" fill-opacity="0.3"/>
<defs>
<linearGradient id="paint0_linear_32607_23430" x1="11" y1="12.0001" x2="11" y2="20.0001" gradientUnits="userSpaceOnUse">
<stop stop-color="#FA660F"/>
<stop offset="1" stop-color="#FA660F" stop-opacity="0"/>
</linearGradient>
</defs>
</svg>
