<?xml version="1.0" encoding="UTF-8"?>
<svg width="30px" height="30px" viewBox="0 0 30 30" version="1.1" xmlns="http://www.w3.org/2000/svg" xmlns:xlink="http://www.w3.org/1999/xlink">
    <!-- Generator: Sketch 48.2 (47327) - http://www.bohemiancoding.com/sketch -->
    <title>Mekko</title>
    <desc>Created with Sketch.</desc>
    <defs></defs>
    <g id="General-icons" stroke="none" stroke-width="1" fill="none" fill-rule="evenodd">
        <g id="Mekko">
            <rect id="Rectangle-3" fill="#8B95E4" x="0" y="5" width="8" height="22"></rect>
            <rect id="Rectangle-3" fill="#8B95E4" opacity="0.25" x="0" y="27" width="8" height="3"></rect>
            <rect id="Rectangle-3" fill="#8B95E4" opacity="0.5" x="0" y="0" width="8" height="5"></rect>
            <rect id="Rectangle-3-Copy" fill="#FF915D" opacity="0.5" transform="translate(12.000000, 4.500000) rotate(-180.000000) translate(-12.000000, -4.500000) " x="10" y="0" width="4" height="9"></rect>
            <rect id="Rectangle-3-Copy" fill="#FF915D" transform="translate(12.000000, 14.000000) rotate(-180.000000) translate(-12.000000, -14.000000) " x="10" y="9" width="4" height="10"></rect>
            <rect id="Rectangle-3-Copy" fill="#FF915D" opacity="0.25" transform="translate(12.000000, 24.500000) rotate(-180.000000) translate(-12.000000, -24.500000) " x="10" y="19" width="4" height="11"></rect>
            <polygon id="Rectangle-3-Copy-2" fill="#85C836" points="16 14 22 14 22 30 16 30"></polygon>
            <polygon id="Rectangle-3-Copy-2" fill="#85C836" opacity="0.5" points="16 0 22 0 22 14 16 14"></polygon>
            <rect id="Rectangle-3-Copy-3" fill="#1C91DC" x="24" y="10" width="6" height="10"></rect>
            <rect id="Rectangle-3-Copy-3" fill="#1C91DC" opacity="0.5" x="24" y="20" width="6" height="10"></rect>
            <rect id="Rectangle-3-Copy-3" fill="#1C91DC" opacity="0.5" x="24" y="0" width="6" height="10"></rect>
        </g>
    </g>
</svg>