<svg width="52" height="52" viewBox="0 0 52 52" fill="none" xmlns="http://www.w3.org/2000/svg">
<rect x="6" y="11" width="20" height="3" fill="#06C6C6"/>
<rect x="9" y="18" width="17" height="3" fill="#06C6C6"/>
<rect x="10" y="25" width="16" height="3" fill="#06C6C6"/>
<rect x="13" y="32" width="13" height="3" fill="#06C6C6"/>
<rect x="16" y="39" width="10" height="3" fill="#06C6C6"/>
<rect x="28" y="11" width="18" height="3" fill="#0E6FF9"/>
<rect x="28" y="18" width="16" height="3" fill="#0E6FF9"/>
<rect x="28" y="25" width="12" height="3" fill="#0E6FF9"/>
<rect x="28" y="32" width="9" height="3" fill="#0E6FF9"/>
<rect x="28" y="39" width="5" height="3" fill="#0E6FF9"/>
<rect x="16" y="9" width="10" height="1" rx="0.5" fill="#D7D7D8"/>
<rect x="28" y="9" width="8" height="1" rx="0.5" fill="#D7D7D8"/>
<rect x="19" y="16" width="7" height="1" rx="0.5" fill="#D7D7D8"/>
<rect x="28" y="16" width="13" height="1" rx="0.5" fill="#D7D7D8"/>
<rect x="14" y="23" width="12" height="1" rx="0.5" fill="#D7D7D8"/>
<rect x="28" y="23" width="10" height="1" rx="0.5" fill="#D7D7D8"/>
<rect x="18" y="30" width="8" height="1" rx="0.5" fill="#D7D7D8"/>
<rect x="28" y="30" width="8" height="1" rx="0.5" fill="#D7D7D8"/>
<rect x="19" y="37" width="7" height="1" rx="0.5" fill="#D7D7D8"/>
<rect x="28" y="37" width="6" height="1" rx="0.5" fill="#D7D7D8"/>
<rect opacity="0.8" x="7" y="12" width="2" height="1" rx="0.5" fill="white"/>
<rect opacity="0.8" x="10" y="19" width="2" height="1" rx="0.5" fill="white"/>
<rect opacity="0.8" x="11" y="26" width="2" height="1" rx="0.5" fill="white"/>
<rect opacity="0.8" x="14" y="33" width="2" height="1" rx="0.5" fill="white"/>
<rect opacity="0.8" x="17" y="40" width="2" height="1" rx="0.5" fill="white"/>
<rect opacity="0.8" x="43" y="12" width="2" height="1" rx="0.5" fill="white"/>
<rect opacity="0.8" x="41" y="19" width="2" height="1" rx="0.5" fill="white"/>
<rect opacity="0.8" x="37" y="26" width="2" height="1" rx="0.5" fill="white"/>
<rect opacity="0.8" x="34" y="33" width="2" height="1" rx="0.5" fill="white"/>
<rect opacity="0.8" x="30" y="40" width="2" height="1" rx="0.5" fill="white"/>
</svg>
