<svg width="160" height="100" viewBox="0 0 160 100" fill="none" xmlns="http://www.w3.org/2000/svg">
<path fill-rule="evenodd" clip-rule="evenodd" d="M86.6099 14.8328C82.99 8.4164 77.0324 8.3618 73.3802 14.8328L37.5829 78.2799C33.9631 84.6894 36.7541 90 43.8902 90H116.106C123.184 90 126.066 84.7509 122.414 78.2799L86.6099 14.8328Z" fill="#DDEBFE"/>
<path fill-rule="evenodd" clip-rule="evenodd" d="M85 43.4458C85 40.4382 82.7616 38 80.0003 38C79.7482 38 79.4965 38.0208 79.2473 38.0621C76.5175 38.5152 74.6418 41.2928 75.0577 44.2661L77.4895 61.6502C77.6785 63.0016 78.7454 64 80.0003 64C81.2553 64 82.3222 63.0016 82.5112 61.6502L84.943 44.2661C84.9809 43.9947 85 43.7204 85 43.4458ZM80 76C82.2091 76 84 74.2091 84 72C84 69.7909 82.2091 68 80 68C77.7909 68 76 69.7909 76 72C76 74.2091 77.7909 76 80 76Z" fill="#64A2FB"/>
</svg>
