<?xml version="1.0" encoding="UTF-8"?>
<svg width="30px" height="30px" viewBox="0 0 32 32" version="1.1" xmlns="http://www.w3.org/2000/svg" xmlns:xlink="http://www.w3.org/1999/xlink">
    <!-- Generator: Sketch 50.2 (55047) - http://www.bohemiancoding.com/sketch -->
    <title>Gauge</title>
    <desc>Created with Sketch.</desc>
    <defs></defs>
    <g id="General-icons" stroke="none" stroke-width="1" fill="none" fill-rule="evenodd">
        <g id="Narrative-Science-Copy-5">
            <g id="Gauge">
                <rect id="Rectangle-5" x="0" y="0" width="30" height="30"></rect>
                <path d="M12.4154158,20.097123 C13.010184,20.097123 13.3839354,18.9678664 13.3839354,14.7450233 C13.3839354,10.5221802 12.8763639,4.78738664 12.4154158,4.80485533 C11.9544678,4.82232403 11.5180031,10.5928941 11.5180031,14.8157372 C11.5180031,19.0385803 11.8206477,20.097123 12.4154158,20.097123 Z" id="Oval-3" fill="#1C91DC" transform="translate(12.450969, 12.450969) rotate(-45.000000) translate(-12.450969, -12.450969) "></path>
                <circle id="Oval-4" fill="#1C91DC" cx="15" cy="15" r="2.15384615"></circle>
                <circle id="Oval-2" stroke="#BBBBBB" cx="15" cy="15" r="14.5"></circle>
                <path d="M15,3.15384615 L15,5.84615385" id="Line-3" stroke="#BBBBBB" stroke-linecap="square"></path>
                <path d="M25.2307692,10.1538462 L22,12.3076923" id="Line-3" stroke="#979797" opacity="0" stroke-linecap="square"></path>
                <path d="M8,10.1538462 L4.76923077,12.3076923" id="Line-3" stroke="#979797" opacity="0" stroke-linecap="square" transform="translate(6.384615, 11.230769) scale(-1, 1) translate(-6.384615, -11.230769) "></path>
                <path d="M9.07692308,20.9230769 L5.84615385,23.0769231" id="Line-3-Copy" stroke="#979797" opacity="0" stroke-linecap="square" transform="translate(7.461538, 22.000000) scale(-1, -1) translate(-7.461538, -22.000000) "></path>
                <path d="M24.1538462,20.9230769 L20.9230769,23.0769231" id="Line-3-Copy-2" stroke="#979797" opacity="0" stroke-linecap="square" transform="translate(22.538462, 22.000000) scale(1, -1) translate(-22.538462, -22.000000) "></path>
                <path d="M23.6153846,11.7692308 L25.9851715,10.2921803 C26.6615121,11.551133 26.9996824,13.1361313 26.9996824,15.047175 C26.9996824,16.9582188 26.5082646,18.7848418 25.5254289,20.5270443 L23.2059052,18.9360544 C23.8573686,17.8059395 24.1831003,16.6304588 24.1831003,15.4096123 C24.1831003,14.1887658 23.9938617,12.9753052 23.6153846,11.7692308 Z" id="Rectangle" fill="#FF915D" opacity="0.8"></path>
                <path d="M4.71138761,11.974485 L7.22269045,10.426015 C7.80321384,11.3557784 8.09347553,12.776182 8.09347553,14.6872257 C8.09347553,15.8645744 8.11943427,17.452686 7.48065761,19.1677168 C7.2152776,19.880227 6.57805813,21.0060889 5.5689992,22.5453024 L3.22761785,20.9428044 C4.13492833,19.7938236 4.68837779,18.9375357 4.88796623,18.3739408 C5.52906078,16.5636272 5.46817181,14.8377859 5.29711926,14.1228851 C5.02435058,12.9828695 4.82910669,12.2667362 4.71138761,11.974485 Z" id="Rectangle" fill="#85C836" opacity="0.8" transform="translate(5.660620, 16.485659) scale(-1, 1) translate(-5.660620, -16.485659) "></path>
                <path d="M23.2320752,18.9107768 L25.4604385,20.4855448 L24.8588577,21.5943599 L24.1879244,22.4592401 L21.8813519,20.9757412 C22.227494,20.5221129 22.4785342,20.1761007 22.6344725,19.9377048 C22.7904107,19.6993088 22.9896116,19.3569995 23.2320752,18.9107768 Z" id="Rectangle-4" fill="#F04C5E" opacity="0.8"></path>
            </g>
        </g>
    </g>
</svg>