<svg width="52" height="52" viewBox="0 0 52 52" fill="none" xmlns="http://www.w3.org/2000/svg">
<mask id="mask0_32566_7787" style="mask-type:luminance" maskUnits="userSpaceOnUse" x="8" y="8" width="36" height="37">
<path d="M8 8H44V44.0005H8V8Z" fill="white"/>
</mask>
<g mask="url(#mask0_32566_7787)">
<path opacity="0.6" d="M15.5323 34.6709C12.1392 35.0348 8 39.0847 8 39.0847V44H44V32.5675C44 32.5675 41.2095 33.8171 39.3477 33.6709C35.5645 33.3739 36.0075 28.6363 32.2585 28.0502C27.2791 27.2718 27.3116 35.7929 22.2892 36.2157C19.5915 36.4429 18.2241 34.3823 15.5323 34.6709Z" fill="url(#paint0_linear_32566_7787)" fill-opacity="0.4"/>
<path d="M8 39C8 39 12.1392 34.981 15.5323 34.6199C18.2241 34.3335 19.5915 36.3784 22.2892 36.153C27.3116 35.7333 27.2791 27.2774 32.2585 28.0498C36.0075 28.6315 35.5645 33.3252 39.3477 33.6199C41.2095 33.765 44 32.5249 44 32.5249" stroke="#FA660F" stroke-linecap="round"/>
<rect x="8" y="12" width="12" height="12" rx="1.95" fill="#0E6FF9" fill-opacity="0.6"/>
<ellipse cx="11.3372" cy="15.3333" rx="1.33333" ry="1.33333" fill="#BDD8FD"/>
<path d="M16.2463 17.583C16.6743 17.2406 17.2869 17.2563 17.6965 17.6204L20 19.6682V22.0498C20 23.1267 19.127 23.9998 18.05 23.9998H9.95C8.87304 23.9998 8 23.1267 8 22.0498V21.169L10.1614 19.2786C10.487 18.9938 10.9473 18.9208 11.345 19.0911L12.2759 19.4903C12.9116 19.7627 13.6459 19.6631 14.186 19.231L16.2463 17.583Z" fill="#BDD8FD"/>
<rect x="23" y="22" width="14" height="2" rx="1" fill="#949494" fill-opacity="0.3"/>
<path fill-rule="evenodd" clip-rule="evenodd" d="M25.5324 20.9998H25.093V20.4783C24.4981 20.4108 24.0542 20.279 23.7613 20.0827C23.2448 19.7301 22.9912 19.1292 23.0002 18.2799H24.2233C24.2656 18.6662 24.3245 18.9253 24.4 19.0571C24.5177 19.2625 24.7488 19.3959 25.093 19.4572V17.4934L24.7261 17.383C24.1493 17.2113 23.7424 16.9722 23.5053 16.6655C23.2682 16.3589 23.1497 15.9895 23.1497 15.5571C23.1497 15.272 23.1958 15.0129 23.2879 14.7799C23.38 14.5469 23.5091 14.346 23.6752 14.1774C23.8896 13.9597 24.1282 13.8095 24.3909 13.7267C24.551 13.6745 24.785 13.6362 25.093 13.6117V13H25.5234V13.6209C26.0156 13.6607 26.4022 13.7834 26.683 13.9888C27.1934 14.3169 27.4576 14.8489 27.4757 15.5847H26.2844C26.2602 15.3118 26.2149 15.1126 26.1485 14.9868C26.0337 14.7691 25.8254 14.6496 25.5234 14.6281V16.3804C26.2421 16.6318 26.7253 16.8541 26.9729 17.0473C27.3806 17.3692 27.5844 17.823 27.5844 18.4086C27.5844 19.1813 27.3051 19.7424 26.7464 20.0919C26.4052 20.3066 26.0005 20.4323 25.5324 20.4691V20.9998ZM24.51 14.8512C24.6368 14.7148 24.8316 14.6435 25.0943 14.6373V16.2517C24.8739 16.1811 24.7108 16.1045 24.6051 16.0217C24.4149 15.8715 24.3197 15.6676 24.3197 15.41C24.3197 15.1739 24.3832 14.9876 24.51 14.8512ZM26.0436 19.2779C25.9349 19.3576 25.7612 19.4128 25.5227 19.4434V17.6452C25.7763 17.7402 25.956 17.8322 26.0617 17.9211C26.2399 18.0744 26.329 18.2829 26.329 18.5466C26.329 18.8931 26.2338 19.1368 26.0436 19.2779ZM28.5349 14.812V15.7043H30.0796V20.3035H31.4023V13.6347H30.3288C30.3288 13.6929 30.3122 13.7818 30.2789 13.9014C30.2216 14.1007 30.137 14.2601 30.0253 14.3797C29.8622 14.5545 29.6508 14.671 29.3911 14.7293C29.228 14.7661 28.9426 14.7937 28.5349 14.812ZM33.643 18.9927C33.8272 18.5481 34.262 18.0775 34.9475 17.5808C35.5425 17.1484 35.9275 16.8388 36.1027 16.6517C36.3714 16.3604 36.5058 16.0416 36.5058 15.6951C36.5058 15.413 36.4288 15.1785 36.2748 14.9914C36.1208 14.8044 35.9003 14.7109 35.6134 14.7109C35.2208 14.7109 34.9536 14.8596 34.8117 15.157C34.7301 15.3287 34.6818 15.6016 34.6667 15.9757H33.4119C33.4331 15.4084 33.5342 14.95 33.7154 14.6005C34.0597 13.9351 34.6712 13.6025 35.55 13.6025C36.2446 13.6025 36.7972 13.7979 37.2079 14.1889C37.6187 14.5798 37.824 15.0972 37.824 15.7411C37.824 16.2347 37.6791 16.6732 37.3891 17.0565C37.1989 17.3109 36.8863 17.5946 36.4515 17.9073L35.9351 18.2798C35.6119 18.5129 35.3907 18.6815 35.2714 18.7857C35.1521 18.89 35.0517 19.0111 34.9702 19.1491H37.8376V20.3035H33.3394C33.3515 19.8252 33.4527 19.3882 33.643 18.9927ZM39.8516 18.9191C39.7671 18.7444 39.7248 18.5236 39.7248 18.2568H38.4564C38.4776 18.7873 38.5833 19.2165 38.7735 19.5446C39.1359 20.1609 39.7822 20.469 40.7123 20.469C41.4673 20.469 42.0373 20.2552 42.4223 19.8275C42.8074 19.3997 42.9999 18.9038 42.9999 18.3396C42.9999 17.8031 42.8353 17.3799 42.5061 17.0703C42.2857 16.8648 42.1166 16.7621 41.9988 16.7621C42.1558 16.7008 42.3068 16.5858 42.4518 16.4172C42.6813 16.1474 42.796 15.8162 42.796 15.4238C42.796 14.8688 42.6035 14.4265 42.2185 14.0969C41.8335 13.7673 41.3269 13.6025 40.6987 13.6025C40.3605 13.6025 40.0751 13.6439 39.8426 13.7267C39.61 13.8094 39.4092 13.929 39.2401 14.0854C39.0136 14.3062 38.8475 14.5468 38.7418 14.8075C38.6422 15.1049 38.5863 15.4191 38.5742 15.7503H39.7792C39.7731 15.4222 39.8418 15.1601 39.9853 14.9638C40.1287 14.7676 40.3529 14.6695 40.658 14.6695C40.9237 14.6695 41.1298 14.7492 41.2763 14.9086C41.4227 15.0681 41.496 15.275 41.496 15.5295C41.496 15.922 41.3525 16.1826 41.0656 16.3114C40.8995 16.388 40.6066 16.4294 40.1868 16.4356V17.3738C40.6157 17.3738 40.9297 17.4152 41.1291 17.498C41.4794 17.6452 41.6545 17.938 41.6545 18.3764C41.6545 18.7076 41.5602 18.9613 41.3714 19.1376C41.1827 19.3139 40.9615 19.402 40.7078 19.402C40.2941 19.402 40.0087 19.2411 39.8516 18.9191Z" fill="#444649" fill-opacity="0.8"/>
</g>
<rect opacity="0.5" x="39" y="22" width="5" height="2" rx="0.5" fill="#EB6756"/>
<defs>
<linearGradient id="paint0_linear_32566_7787" x1="26" y1="28" x2="26" y2="44" gradientUnits="userSpaceOnUse">
<stop stop-color="#FA660F"/>
<stop offset="1" stop-color="#FA660F" stop-opacity="0"/>
</linearGradient>
</defs>
</svg>
