<svg width="14" height="14" viewBox="0 0 14 14" fill="none" xmlns="http://www.w3.org/2000/svg">
<mask id="mask0_580_10907" style="mask-type:alpha" maskUnits="userSpaceOnUse" x="0" y="0" width="14" height="14">
<rect width="14" height="14" fill="#D9D9D9"/>
</mask>
<g mask="url(#mask0_580_10907)">
<path d="M7.00015 10.5C7.19459 10.5 7.35987 10.432 7.49598 10.2958C7.63209 10.1597 7.70015 9.99445 7.70015 9.80001C7.70015 9.60557 7.63209 9.44029 7.49598 9.30418C7.35987 9.16807 7.19459 9.10001 7.00015 9.10001C6.8057 9.10001 6.64042 9.16807 6.50431 9.30418C6.3682 9.44029 6.30015 9.60557 6.30015 9.80001C6.30015 9.99445 6.3682 10.1597 6.50431 10.2958C6.64042 10.432 6.8057 10.5 7.00015 10.5ZM6.47515 8.26876H7.53973C7.53973 7.90904 7.57133 7.65383 7.63452 7.50313C7.69772 7.35244 7.85084 7.16043 8.0939 6.92709C8.43417 6.59654 8.66994 6.31459 8.80119 6.08126C8.93244 5.84793 8.99806 5.59029 8.99806 5.30834C8.99806 4.77362 8.81577 4.33855 8.45119 4.00313C8.08661 3.66772 7.62237 3.50001 7.05848 3.50001C6.56265 3.50001 6.13244 3.63126 5.76786 3.89376C5.40327 4.15626 5.14806 4.51112 5.00223 4.95834L5.95015 5.35209C6.03765 5.07987 6.17619 4.86841 6.36577 4.71772C6.55536 4.56702 6.77654 4.49168 7.02931 4.49168C7.30154 4.49168 7.52515 4.56945 7.70015 4.72501C7.87515 4.88056 7.96265 5.08473 7.96265 5.33751C7.96265 5.56112 7.8873 5.76043 7.73661 5.93543C7.58591 6.11043 7.4182 6.28057 7.23348 6.44584C6.8932 6.75695 6.68174 7.01216 6.59911 7.21147C6.51647 7.41077 6.47515 7.7632 6.47515 8.26876ZM7.00015 12.6C6.23209 12.6 5.50779 12.4542 4.82723 12.1625C4.14667 11.8708 3.55119 11.4698 3.04077 10.9594C2.53035 10.449 2.12931 9.85348 1.83765 9.17293C1.54598 8.49237 1.40015 7.76807 1.40015 7.00001C1.40015 6.22223 1.54598 5.4955 1.83765 4.8198C2.12931 4.14411 2.53035 3.55105 3.04077 3.04063C3.55119 2.53022 4.14667 2.12918 4.82723 1.83751C5.50779 1.54584 6.23209 1.40001 7.00015 1.40001C7.77792 1.40001 8.50466 1.54584 9.18036 1.83751C9.85605 2.12918 10.4491 2.53022 10.9595 3.04063C11.4699 3.55105 11.871 4.14411 12.1626 4.8198C12.4543 5.4955 12.6001 6.22223 12.6001 7.00001C12.6001 7.76807 12.4543 8.49237 12.1626 9.17293C11.871 9.85348 11.4699 10.449 10.9595 10.9594C10.4491 11.4698 9.85605 11.8708 9.18036 12.1625C8.50466 12.4542 7.77792 12.6 7.00015 12.6ZM7.00015 11.55C8.26404 11.55 9.33834 11.1076 10.2231 10.2229C11.1078 9.3382 11.5501 8.2639 11.5501 7.00001C11.5501 5.73612 11.1078 4.66182 10.2231 3.77709C9.33834 2.89237 8.26404 2.45001 7.00015 2.45001C5.73626 2.45001 4.66195 2.89237 3.77723 3.77709C2.89251 4.66182 2.45015 5.73612 2.45015 7.00001C2.45015 8.2639 2.89251 9.3382 3.77723 10.2229C4.66195 11.1076 5.73626 11.55 7.00015 11.55Z" fill="#29313B"/>
</g>
</svg>
