<?xml version="1.0" encoding="UTF-8"?>
<svg width="816px" height="187px" viewBox="0 0 816 187" version="1.1" xmlns="http://www.w3.org/2000/svg" xmlns:xlink="http://www.w3.org/1999/xlink">
    <title>Format Panel 22x22</title>
 
        <g id="KPI" fill="none">
            <rect id="Rectangle" x="0" y="0" width="22" height="22"></rect>
            <g id="Group" transform="translate(2.000000, 4.000000)">
                <path d="M2.09900948,6.85212502 L2.09900948,6.09745262 C2.48698369,6.06741591 2.82239364,5.96479048 3.10523935,5.78957632 C3.56830533,5.50422755 3.79983833,5.04616769 3.79983833,4.41539673 C3.79983833,3.93731239 3.63088182,3.5668596 3.2929688,3.30403837 C3.08771794,3.14634563 2.68722844,2.96487382 2.09150031,2.75962296 L2.09150031,2.75962296 L2.09150031,1.32912453 C2.34180624,1.34664594 2.51451734,1.44426526 2.6096336,1.62198247 C2.6647009,1.72460791 2.70224679,1.88730676 2.72227127,2.11007905 L2.72227127,2.11007905 L3.70972819,2.11007905 C3.69470983,1.5093448 3.47569214,1.075064 3.0526751,0.807236647 C2.81989058,0.639531669 2.49949898,0.539409294 2.09150031,0.506869522 L2.09150031,0.506869522 L2.09150031,-2.44249065e-14 L1.73481435,-2.44249065e-14 L1.73481435,0.499360344 C1.47950229,0.519384819 1.28551519,0.550673061 1.15285304,0.593225071 C0.935086877,0.660807674 0.737345187,0.783457583 0.559627972,0.961174798 C0.421959707,1.09884306 0.314953919,1.26279345 0.238610608,1.45302596 C0.162267297,1.64325848 0.124095642,1.85476699 0.124095642,2.08755151 C0.124095642,2.44048289 0.222340722,2.74210154 0.418830882,2.99240748 C0.615321043,3.24271341 0.952608293,3.43795204 1.43069263,3.57812337 L1.43069263,3.57812337 L1.73481435,3.66823351 L1.73481435,5.27144303 C1.44946558,5.22138185 1.25798154,5.11249876 1.16036222,4.94479378 C1.09778574,4.83716223 1.04897608,4.62565372 1.01393325,4.31026823 L1.01393325,4.31026823 L0.000194202882,4.31026823 C-0.00731497523,5.00361568 0.202942012,5.49421532 0.630965164,5.78206714 C0.873761923,5.94226294 1.24171165,6.0498945 1.73481435,6.1049618 L1.73481435,6.1049618 L1.73481435,6.85212502 L2.09900948,6.85212502 Z M1.73481435,2.65449446 C1.55209101,2.5969241 1.41692581,2.53434761 1.32931873,2.46676501 C1.17162599,2.3441151 1.09277962,2.17766165 1.09277962,1.96740466 C1.09277962,1.77466909 1.14534386,1.62260824 1.25047236,1.51122209 C1.35560085,1.39983595 1.51704818,1.34163982 1.73481435,1.3366337 L1.73481435,1.3366337 L1.73481435,2.65449446 Z M2.09150031,5.26017927 L2.09150031,3.79213495 C2.30175729,3.86972979 2.45068933,3.94482157 2.5382964,4.01741029 C2.68597691,4.14256326 2.75981716,4.31277129 2.75981716,4.5280344 C2.75981716,4.81088011 2.68097079,5.00987333 2.52327805,5.12501406 C2.43316791,5.1900936 2.289242,5.23514867 2.09150031,5.26017927 L2.09150031,5.26017927 Z M6.77272194,5.96228742 L6.77272194,0.51813329 L5.88288433,0.51813329 C5.88288433,0.565691418 5.86911751,0.638280139 5.84158385,0.735899455 C5.79402573,0.898598314 5.72394006,1.0287574 5.63132687,1.12637672 C5.49616166,1.2690511 5.32094751,1.36416736 5.1056844,1.41172548 C4.97051919,1.4417622 4.73398008,1.46428973 4.39606707,1.47930809 L4.39606707,1.47930809 L4.39606707,2.20769836 L5.67638194,2.20769836 L5.67638194,5.96228742 L6.77272194,5.96228742 Z M11.915758,5.96228742 L11.915758,5.01988557 L9.53910315,5.01988557 C9.60668576,4.90724789 9.68991248,4.80837705 9.78878333,4.72327303 C9.88765417,4.63816901 10.0710033,4.50050075 10.3388306,4.31026823 L10.3388306,4.31026823 L10.7668538,4.00614652 C11.1272943,3.75083447 11.386361,3.51930147 11.5440537,3.31154755 C11.7843474,2.99866512 11.9044943,2.64072764 11.9044943,2.23773508 C11.9044943,1.71209261 11.7342862,1.28970134 11.3938701,0.970561271 C11.0534541,0.651421201 10.5953942,0.491851166 10.0196906,0.491851166 C9.29130028,0.491851166 8.78443075,0.763433108 8.49908199,1.30659699 C8.34889842,1.59194576 8.26504594,1.96615313 8.24752452,2.42921912 L8.24752452,2.42921912 L9.28754569,2.42921912 C9.30006099,2.12384588 9.34010994,1.90107359 9.40769254,1.76090227 C9.52533633,1.51810551 9.74685708,1.39670713 10.0722548,1.39670713 C10.3100454,1.39670713 10.4927688,1.47305044 10.6204248,1.62573706 C10.7480808,1.77842368 10.8119088,1.96990772 10.8119088,2.20018919 C10.8119088,2.48303489 10.7005227,2.74335307 10.4777504,2.98114371 C10.332573,3.13383033 10.0134329,3.38663933 9.52033021,3.7395707 C8.95213573,4.14506632 8.59169518,4.52928593 8.43900856,4.89222954 C8.28131582,5.2151242 8.19746333,5.57181016 8.1874511,5.96228742 L8.1874511,5.96228742 L11.915758,5.96228742 Z M14.1039325,6.09745262 C14.7296974,6.09745262 15.2021498,5.92286423 15.5212899,5.57368745 C15.84043,5.22451067 16,4.81964082 16,4.35907789 C16,3.9210425 15.8635833,3.57562031 15.5907498,3.32281131 C15.4080265,3.15510634 15.2678551,3.07125385 15.1702358,3.07125385 C15.3003949,3.02119266 15.4255479,2.92732793 15.5456947,2.78965967 C15.7359272,2.56939044 15.8310435,2.29906003 15.8310435,1.97866843 C15.8310435,1.52561469 15.6714735,1.16454837 15.3523334,0.89546949 C15.0331933,0.626390607 14.6133051,0.491851166 14.0926688,0.491851166 C13.8123261,0.491851166 13.575787,0.525642468 13.3830514,0.593225071 C13.1903159,0.660807674 13.0238624,0.758426989 12.8836911,0.886083017 C12.6959616,1.06630329 12.5582934,1.26279345 12.4706863,1.4755535 C12.3880853,1.71835026 12.3417787,1.97491384 12.3317665,2.24524425 L12.3317665,2.24524425 L13.3304872,2.24524425 C13.3254811,1.9774169 13.3824257,1.76340533 13.501321,1.60320953 C13.6202163,1.44301373 13.8060685,1.36291583 14.0588775,1.36291583 C14.2791467,1.36291583 14.4499805,1.42799537 14.5713789,1.55815446 C14.6927772,1.68831354 14.7534764,1.85727005 14.7534764,2.06502398 C14.7534764,2.38541558 14.6345811,2.59817563 14.3967905,2.70330412 C14.2591222,2.7658806 14.0163254,2.79967191 13.6684002,2.80467802 L13.6684002,2.80467802 L13.6684002,3.57061419 C14.0238346,3.57061419 14.2841528,3.60440549 14.4493547,3.6719881 C14.7397096,3.79213495 14.8848871,4.03117711 14.8848871,4.3891146 C14.8848871,4.65944502 14.8066664,4.86657318 14.6502252,5.01049909 C14.493784,5.15442501 14.3104349,5.22638796 14.1001779,5.22638796 C13.7572588,5.22638796 13.5207197,5.09497735 13.3905606,4.83215611 C13.3204749,4.68948173 13.2854321,4.50926145 13.2854321,4.29149529 L13.2854321,4.29149529 L12.2341472,4.29149529 C12.2516686,4.72452456 12.3392757,5.07495287 12.4969684,5.34278022 C12.7973355,5.84589516 13.3329902,6.09745262 14.1039325,6.09745262 Z" id="$123" fill="#35383A" fill-rule="nonzero"></path>
                <path d="M0,15 C0,15 0,14.6666667 0,14 C1,12 3,11 5,11 C7,11 10,12 12,11 C14,10 17,7 18,8 C18,10 18,12.3333333 18,15 L0,15 Z" id="Path-4" fill="#3B92ED"></path>
                <rect id="Rectangle" fill="#F1660D" x="0" y="8" width="5" height="1"></rect>
            </g>
        </g>
       
   
</svg>