<?xml version="1.0" encoding="UTF-8"?>
<svg width="30px" height="30px" viewBox="0 0 30 30" version="1.1" xmlns="http://www.w3.org/2000/svg"
    xmlns:xlink="http://www.w3.org/1999/xlink">
    <title>ComparisonKPI</title>
    <defs>
        <rect id="path-10" x="0" y="0" width="30" height="30"></rect>
    </defs>
    <g id="custom-Viz-image" stroke="none" stroke-width="1" fill="none" fill-rule="evenodd">
        <g id="Comparison-KPI-30px" transform="translate(00.000000, 0.000000)">
            <mask id="mask-11" fill="white">
                <use xlink:href="#path-10"></use>
            </mask>
            <use id="bounding-box" fill-opacity="0" fill="#FFFFFF" xlink:href="#path-10"></use>
            <g id="Group-2" mask="url(#mask-11)">
                <g transform="translate(-0.524476, -1.363636)">
                    <path
                        d="M0,29.4151103 C0.954428449,28.713696 1.73480503,28.2822579 2.86170723,29.2098643 C3.98860944,30.1374707 4.9649939,30.9414588 7.73055288,28.0913716 C10.4961119,25.2412844 11.4148073,26.2552086 12.4279924,27.1732901 C13.4411776,28.0913716 13.9442578,28.3598752 15.6834671,27.5548683 C17.4226763,26.7498615 18.1056755,26.2292092 19.8609677,28.302474 C21.6162598,30.3757387 22.9024849,30.3757387 25.4990478,27.5548683 C28.0956107,24.7339979 30.1649262,25.0371906 31.8731572,26.2847551 C33.0119779,27.1164648 33.0119779,28.9084008 31.8731572,31.6605631 L0,32.190306 L0,29.4151103 Z"
                        id="area" stroke="none" fill="#3B92ED" fill-rule="evenodd" opacity="0.2"></path>
                    <path
                        d="M0,28.8929499 C0.939171058,28.2821247 1.70707262,27.9064078 2.81596029,28.7142119 C3.92484796,29.5220159 4.88562404,30.2221672 7.60697309,27.7401749 C10.3283221,25.2581826 11.2323314,26.1411563 12.2293199,26.9406656 C13.2263084,27.7401749 13.7213464,27.9740007 15.4327528,27.2729622 C17.1441593,26.5719237 17.8162401,26.1185148 19.5434724,27.924013 C21.2707046,29.7295111 22.5363682,29.7295111 25.0914227,27.2729622 C27.6464773,24.8164133 29.682713,25.080448 31.3636364,26.1668869"
                        id="line" stroke="#0092F4" stroke-width="1.36363636" fill="none"></path>
                    <rect id="Rectangle-4" stroke="none" fill="#83C861" fill-rule="evenodd" x="21.7677541"
                        y="4.36363636" width="6.96428713" height="2.04545455" rx="0.409090909"></rect>
                    <text id="6.4k" stroke="none" fill="none" font-family="Helvetica-Bold, Helvetica"
                        font-size="9.54545455" font-weight="bold">
                        <tspan x="0.874892745" y="9" fill="#696B6D">6.4k</tspan>
                    </text>
                    <text id="6.0k" stroke="none" fill="none" font-family="Helvetica-Oblique, Helvetica"
                        font-size="8.18181818" font-style="italic" font-weight="normal">
                        <tspan x="13.2558476" y="19.6198555" fill="#696B6D">6.0k</tspan>
                    </text>
                </g>
            </g>
            <g id="crosshairs" transform="translate(0.839161, 11.066434)">
                <circle id="Oval" stroke="#0092F4" stroke-width="1.09090909" cx="5.11363636" cy="5.11363636"
                    r="3.78146853"></circle>
                <path
                    d="M5.50699301,7.08041958 L5.50699301,10.2272727 L4.72027972,10.2272727 L4.72027972,7.08041958 L5.50699301,7.08041958 Z M5.50699301,3.93356643 L5.506,4.72 L6.29370629,4.72027972 L6.29370629,5.50699301 L5.506,5.506 L5.50699301,6.29370629 L4.72027972,6.29370629 L4.72,5.506 L3.93356643,5.50699301 L3.93356643,4.72027972 L4.72,4.72 L4.72027972,3.93356643 L5.50699301,3.93356643 Z M3.14685315,4.72027972 L3.14685315,5.50699301 L0,5.50699301 L0,4.72027972 L3.14685315,4.72027972 Z M10.2272727,4.72027972 L10.2272727,5.50699301 L7.08041958,5.50699301 L7.08041958,4.72027972 L10.2272727,4.72027972 Z M5.50699301,0 L5.50699301,3.14685315 L4.72027972,3.14685315 L4.72027972,0 L5.50699301,0 Z"
                    id="Combined-Shape" fill="#0092F4"></path>
            </g>
        </g>
    </g>
</svg>