<svg width="18" height="18" viewBox="0 0 18 18" fill="none" xmlns="http://www.w3.org/2000/svg">
<path d="M7.88737 2.09961C8.06352 1.68859 8.64676 1.68859 8.82292 2.09961L10.7165 6.51856C10.7679 6.63849 10.8641 6.73374 10.984 6.78516L15.402 8.67871C15.813 8.85486 15.813 9.43811 15.402 9.61426L10.984 11.5078C10.864 11.5593 10.7679 11.6553 10.7165 11.7754L8.82292 16.1934C8.64676 16.6044 8.06352 16.6044 7.88737 16.1934L5.99381 11.7754C5.9424 11.6554 5.84713 11.5593 5.72721 11.5078L1.30827 9.61426C0.897244 9.43811 0.897244 8.85486 1.30827 8.67871L5.72721 6.78516C5.84697 6.73372 5.94239 6.63832 5.99381 6.51856L7.88737 2.09961ZM14.2712 0.623048C14.3418 0.459066 14.5747 0.458902 14.6452 0.623048L15.2819 2.11133C15.3025 2.15925 15.3414 2.19723 15.3893 2.21777L16.8766 2.85547C17.041 2.92593 17.041 3.15903 16.8766 3.22949L15.3893 3.86719C15.3413 3.88777 15.3025 3.92563 15.2819 3.97363L14.6452 5.46094C14.5747 5.62535 14.3416 5.62535 14.2712 5.46094L13.6335 3.97363C13.6129 3.92562 13.5741 3.88777 13.526 3.86719L12.0387 3.22949C11.8745 3.15903 11.8746 2.92604 12.0387 2.85547L13.526 2.21777C13.574 2.19724 13.6129 2.1592 13.6335 2.11133L14.2712 0.623048Z" fill="url(#paint0_linear_30_1779)"/>
<defs>
<linearGradient id="paint0_linear_30_1779" x1="1" y1="8.50081" x2="16.9999" y2="8.50081" gradientUnits="userSpaceOnUse">
<stop stop-color="#4776E6"/>
<stop offset="1" stop-color="#8E54E9"/>
</linearGradient>
</defs>
</svg>
