<svg width="18" height="18" viewBox="0 0 18 18" fill="none" xmlns="http://www.w3.org/2000/svg">
<path fill-rule="evenodd" clip-rule="evenodd" d="M12.5 4C12.2239 4 12 4.22386 12 4.5V13.5C12 13.7761 12.2239 14 12.5 14H13.5C13.7761 14 14 13.7761 14 13.5V4.5C14 4.22386 13.7761 4 13.5 4H12.5ZM9.5 8C9.22386 8 9 8.22386 9 8.5V13.5C9 13.7761 9.22386 14 9.5 14H10.5C10.7761 14 11 13.7761 11 13.5V8.5C11 8.22386 10.7761 8 10.5 8H9.5ZM6 6.5C6 6.22386 6.22386 6 6.5 6H7.5C7.77614 6 8 6.22386 8 6.5V13.5C8 13.7761 7.77614 14 7.5 14H6.5C6.22386 14 6 13.7761 6 13.5V6.5ZM3.5 10C3.22386 10 3 10.2239 3 10.5V13.5C3 13.7761 3.22386 14 3.5 14H4.5C4.77614 14 5 13.7761 5 13.5V10.5C5 10.2239 4.77614 10 4.5 10H3.5Z" fill="white"/>
</svg>
