<svg width="12" height="12" viewBox="0 0 12 12" fill="none" xmlns="http://www.w3.org/2000/svg">
<g transform="rotate(-90 6 6)">
<path d="M1.28589 4.7146C1.28582 4.47804 1.47783 4.28589 1.71448 4.28589H4.10803L1.32874 1.5066L1.93518 0.901132L4.71448 3.68043V1.28589C4.71463 1.04933 4.90667 0.857178 5.14323 0.857178C5.37979 0.857329 5.57194 1.04942 5.57209 1.28589V4.7146C5.57209 4.95116 5.37994 5.14316 5.14323 5.14331H1.71448C1.47779 5.14331 1.28589 4.95116 1.28589 4.7146Z" fill="#29313B"/>
<path d="M10.7141 7.28589C10.7142 7.52245 10.5222 7.7146 10.2855 7.7146H7.89196L10.6713 10.4939L10.0648 11.0994L7.28552 8.32007V10.7146C7.28537 10.9512 7.09333 11.1433 6.85677 11.1433C6.62021 11.1432 6.42806 10.9511 6.42791 10.7146V7.28589C6.42791 7.04933 6.62006 6.85733 6.85677 6.85718H10.2855C10.5222 6.85718 10.7141 7.04933 10.7141 7.28589Z" fill="#29313B"/>
</g>
</svg> 