<svg width="27" height="24" viewBox="0 0 27 24" fill="none" xmlns="http://www.w3.org/2000/svg">
    <path opacity="0.8" fill-rule="evenodd" clip-rule="evenodd"
        d="M0 1.14286V0H11.25V1.14286H0ZM0 18.1426C0 17.5903 0.447715 17.1426 1 17.1426H4.0625C4.61478 17.1426 5.0625 17.5903 5.0625 18.1426V22.9997C5.0625 23.552 4.61478 23.9997 4.0625 23.9997H1C0.447715 23.9997 0 23.552 0 22.9997V18.1426ZM0 2.85742V4.00028H18V2.85742H0ZM7.3125 15C7.3125 14.4477 7.76022 14 8.3125 14H11.375C11.9273 14 12.375 14.4477 12.375 15V23C12.375 23.5523 11.9273 24 11.375 24H8.3125C7.76022 24 7.3125 23.5523 7.3125 23V15ZM15.625 15.4287C15.0727 15.4287 14.625 15.8764 14.625 16.4287V23.0001C14.625 23.5524 15.0727 24.0001 15.625 24.0001H18.6875C19.2398 24.0001 19.6875 23.5524 19.6875 23.0001V16.4287C19.6875 15.8764 19.2398 15.4287 18.6875 15.4287H15.625ZM21.9375 10.7139C21.9375 10.1616 22.3852 9.71387 22.9375 9.71387H26C26.5523 9.71387 27 10.1616 27 10.7139V22.9996C27 23.5519 26.5523 23.9996 26 23.9996H22.9375C22.3852 23.9996 21.9375 23.5519 21.9375 22.9996V10.7139ZM2.53125 15.4287C3.61856 15.4287 4.5 14.5333 4.5 13.4287C4.5 13.2556 4.47836 13.0877 4.43767 12.9275L8.34893 10.4442C8.71 10.8717 9.24574 11.1426 9.84375 11.1426C10.6122 11.1426 11.2777 10.6954 11.6021 10.0432L15.1883 11.0841C15.1878 11.1035 15.1875 11.123 15.1875 11.1426C15.1875 12.2471 16.0689 13.1426 17.1562 13.1426C18.2436 13.1426 19.125 12.2471 19.125 11.1426C19.125 10.7029 18.9853 10.2963 18.7486 9.9662L23.7621 3.86731C23.9815 3.95302 24.2197 4 24.4688 4C25.5561 4 26.4375 3.10457 26.4375 2C26.4375 0.895431 25.5561 0 24.4688 0C23.3814 0 22.5 0.895431 22.5 2C22.5 2.43623 22.6375 2.83985 22.8708 3.16857L17.8538 9.27174C17.637 9.18827 17.4019 9.14258 17.1562 9.14258C16.488 9.14258 15.8974 9.48085 15.5415 9.99804L11.7996 8.91193C11.687 7.916 10.8543 7.14258 9.84375 7.14258C8.75644 7.14258 7.875 8.03801 7.875 9.14258C7.875 9.22568 7.87999 9.3076 7.88968 9.38805L3.85594 11.9492C3.50621 11.6258 3.04139 11.4287 2.53125 11.4287C1.44394 11.4287 0.5625 12.3241 0.5625 13.4287C0.5625 14.5333 1.44394 15.4287 2.53125 15.4287Z"
        fill="#0E6FF9" fill-opacity="0.6" />
</svg>
    