<svg width="18" height="18" viewBox="0 0 18 18" fill="none" xmlns="http://www.w3.org/2000/svg">
<path d="M2.83796 6.72461C2.91783 6.61419 3.08239 6.61409 3.16218 6.72461L4.9366 9.18262C5.03206 9.31489 4.93663 9.5 4.77351 9.5H3.52351C3.77617 12.3032 6.13109 14.5 9.00007 14.5C9.84437 14.5 10.6429 14.3097 11.3565 13.9707C11.6059 13.8523 11.905 13.9586 12.0235 14.208C12.1418 14.4573 12.0353 14.7555 11.7862 14.874C10.9413 15.2754 9.99601 15.5 9.00007 15.5C5.5785 15.5 2.77595 12.8562 2.52058 9.5H1.22566C1.06264 9.49987 0.968123 9.31484 1.06355 9.18262L2.83796 6.72461ZM9.00007 2.5C12.4216 2.50008 15.2232 5.14391 15.4786 8.5H16.7735C16.9366 8.5 17.0321 8.68511 16.9366 8.81738L15.1622 11.2754C15.0824 11.3859 14.9178 11.3858 14.838 11.2754L13.0635 8.81738C12.9681 8.68516 13.0626 8.50013 13.2257 8.5H14.4766C14.224 5.69684 11.869 3.50008 9.00007 3.5C8.15577 3.5 7.35727 3.69035 6.64363 4.0293C6.39422 4.14778 6.09514 4.04138 5.97663 3.79199C5.85826 3.54266 5.9647 3.24452 6.21394 3.12598L6.53523 2.9834C7.29581 2.67153 8.12855 2.5 9.00007 2.5Z" fill="#0E6FF9"/>
</svg>
