<svg width="10" height="10" viewBox="0 0 10 10" fill="none" xmlns="http://www.w3.org/2000/svg">
<path fill-rule="evenodd" clip-rule="evenodd" d="M9.66066 1.01832C9.84809 0.830836 9.84808 0.52691 9.66062 0.339451C9.47314 0.151978 9.16919 0.151978 8.98172 0.339451L4.99955 4.32162L1.04307 0.341459C0.855776 0.153041 0.551058 0.152587 0.3632 0.340445C0.176133 0.527512 0.175681 0.830668 0.362189 1.01829L4.32069 5.00048L0.362562 8.97792C0.175878 9.16551 0.176246 9.46881 0.363387 9.65595C0.551172 9.84374 0.855747 9.84337 1.04307 9.65513L4.99955 5.67935L8.98172 9.65713C9.16922 9.84443 9.47303 9.84435 9.66043 9.65695C9.84796 9.46941 9.8479 9.16534 9.66028 8.97789L5.67938 5.00048L9.66066 1.01832Z" fill="#29313B"/>
</svg>
