<svg width="12" height="12" viewBox="0 0 12 12" fill="none" xmlns="http://www.w3.org/2000/svg">
<path d="M7.03223 2.58008C7.89658 2.66776 8.57101 3.39774 8.57129 4.28516V10.2852C8.57129 11.1728 7.89676 11.9035 7.03223 11.9912L6.85742 12H1.71387L1.53906 11.9912C0.674595 11.9034 0 11.1728 0 10.2852V4.28516C0.000302702 3.33878 0.767472 2.57152 1.71387 2.57129H6.85742L7.03223 2.58008ZM1.71387 3.42871C1.24086 3.42894 0.857724 3.81217 0.857422 4.28516V10.2852C0.857422 10.7584 1.24067 11.1424 1.71387 11.1426H6.85742C7.33068 11.1424 7.71387 10.7585 7.71387 10.2852V4.28516C7.71357 3.81212 7.33049 3.42886 6.85742 3.42871H1.71387ZM10.2861 0C11.2327 0.000226779 12 0.768209 12 1.71484V8.57129C11.9999 9.51786 11.2327 10.2859 10.2861 10.2861H9.42871V9.42871H10.2861C10.7593 9.42848 11.1435 9.04447 11.1436 8.57129V1.71484C11.1436 1.2416 10.7593 0.857649 10.2861 0.857422H5.14355C4.67017 0.857422 4.28613 1.24146 4.28613 1.71484H3.42871C3.42871 0.76807 4.19678 0 5.14355 0H10.2861Z" fill="#29313B"/>
</svg>
