<svg width="18" height="18" viewBox="0 0 18 18" fill="none" xmlns="http://www.w3.org/2000/svg">
<path d="M9 2C12.866 2 16 5.13401 16 9C16 12.866 12.866 16 9 16C5.13401 16 2 12.866 2 9C2 5.13401 5.13401 2 9 2ZM9 3C5.68629 3 3 5.68629 3 9C3 12.3137 5.68629 15 9 15C12.3137 15 15 12.3137 15 9C15 5.68629 12.3137 3 9 3ZM9 8C9.27614 8 9.5 8.22386 9.5 8.5V12.5C9.5 12.7761 9.27614 13 9 13C8.72386 13 8.5 12.7761 8.5 12.5V8.5C8.5 8.22386 8.72386 8 9 8ZM9 5.5C9.41421 5.5 9.75 5.83579 9.75 6.25C9.75 6.66421 9.41421 7 9 7C8.58579 7 8.25 6.66421 8.25 6.25C8.25 5.83579 8.58579 5.5 9 5.5Z" fill="#0E6FF9"/>
</svg>
