<svg width="12" height="12" viewBox="0 0 12 12" fill="none" xmlns="http://www.w3.org/2000/svg">
<path d="M1.28589 6.85718C1.52252 6.85725 1.7146 7.04924 1.7146 7.28589V9.67944L4.4939 6.90015L5.09937 7.50659L2.32007 10.2859H4.7146C4.95116 10.286 5.14331 10.478 5.14331 10.7146C5.14316 10.9511 4.95107 11.1432 4.7146 11.1433H1.28589C1.04929 11.1433 0.857329 10.9512 0.857178 10.7146V7.28589C0.857178 7.0492 1.0492 6.85718 1.28589 6.85718Z" fill="#29313B"/>
<path d="M10.7141 5.14282C10.4775 5.14275 10.2854 4.95076 10.2854 4.71411L10.2854 2.32056L7.5061 5.09985L6.90063 4.49341L9.67993 1.71411L7.2854 1.71411C7.04884 1.71396 6.85669 1.522 6.85669 1.2854C6.85684 1.04893 7.04893 0.85684 7.2854 0.856689L10.7141 0.856689C10.9507 0.856689 11.1427 1.04884 11.1428 1.2854L11.1428 4.71411C11.1428 4.9508 10.9508 5.14282 10.7141 5.14282Z" fill="#29313B"/>
</svg>
