<?xml version="1.0" encoding="UTF-8"?>
<svg width="30px" height="30px" viewBox="-1 -1 34.5 34" version="1.1" xmlns="http://www.w3.org/2000/svg" xmlns:xlink="http://www.w3.org/1999/xlink">
    <!-- Generator: Sketch 50.2 (55047) - http://www.bohemiancoding.com/sketch -->
    <title>Radar Copy</title>
    <desc>Created with Sketch.</desc>
    <defs></defs>
    <g id="General-icons" stroke="none" stroke-width="1" fill="none" fill-rule="evenodd">
        <g id="Narrative-Science-Copy-3">
            <g id="Radar-Copy" transform="translate(-1.000000, 0.000000)">
                <rect id="Rectangle-5" fill="#FFFFFF" x="0" y="0" width="32" height="30"></rect>
                <g id="Group-3" transform="translate(0.000000, 1.000000)">
                    <path d="M8.29016127,0.5 L0.575875553,14 L8.29016127,27.5 L23.7098387,27.5 L31.4241244,14 L23.7098387,0.5 L8.29016127,0.5 Z" id="Rectangle-2" stroke="#E5E5E5"></path>
                    <path d="M12.2901613,7.5 L8.57587555,14 L12.2901613,20.5 L19.7098387,20.5 L23.4241244,14 L19.7098387,7.5 L12.2901613,7.5 Z" id="Rectangle-2" stroke="#E5E5E5"></path>
                    <path d="M23.5,1.5 L8.5,26.5" id="Line" stroke="#E5E5E5" stroke-linecap="square"></path>
                    <path d="M22.7092921,1.74519053 L8.20929214,26.8695462" id="Line" stroke="#E5E5E5" stroke-linecap="square" transform="translate(15.392305, 13.928203) rotate(-60.000000) translate(-15.392305, -13.928203) "></path>
                    <path d="M1,14 L31,14" id="Line" stroke="#E5E5E5" stroke-linecap="square"></path>
                    <polygon id="Path-3" stroke="#1C91DC" fill-opacity="0.469999999" fill="#9AD6FC" points="10.9850408 5.04518161 12 14 10.9850408 23.1529249 18.4498276 16.9524044 26 14 18.4498276 10.3728808"></polygon>
                </g>
            </g>
        </g>
    </g>
</svg>